<svg width="25" height="28" viewBox="0 0 25 28" fill="none" xmlns="http://www.w3.org/2000/svg">
<path d="M19.2188 26.3438L20.6562 24.9062L15.0938 19.3438L13.6562 20.7812C12.8854 21.5521 12.5 22.4792 12.5 23.5625C12.5 24.6458 12.8854 25.5729 13.6562 26.3438C14.4271 27.1146 15.3542 27.5 16.4375 27.5C17.5208 27.5 18.4479 27.1146 19.2188 26.3438ZM22.4062 23.1562L23.8438 21.7188C24.6146 20.9479 25 20.0208 25 18.9375C25 17.8542 24.6146 16.9271 23.8438 16.1562C23.0729 15.3854 22.1458 15 21.0625 15C19.9792 15 19.0521 15.3854 18.2812 16.1562L16.8438 17.5938L22.4062 23.1562ZM5 10H17.5V7.5H5V10ZM11.25 4.0625C11.5208 4.0625 11.745 3.97375 11.9225 3.79625C12.1 3.61875 12.1883 3.395 12.1875 3.125C12.1867 2.855 12.0979 2.63125 11.9212 2.45375C11.7446 2.27625 11.5208 2.1875 11.25 2.1875C10.9792 2.1875 10.7554 2.27625 10.5788 2.45375C10.4021 2.63125 10.3133 2.855 10.3125 3.125C10.3117 3.395 10.4004 3.61917 10.5788 3.7975C10.7571 3.97583 10.9808 4.06417 11.25 4.0625ZM10.1562 25H2.5C1.8125 25 1.22417 24.7554 0.735 24.2663C0.245833 23.7771 0.000833333 23.1883 0 22.5V5C0 4.3125 0.245 3.72417 0.735 3.235C1.225 2.74583 1.81333 2.50083 2.5 2.5H7.75C8.02083 1.75 8.47417 1.14583 9.11 0.6875C9.74583 0.229167 10.4592 0 11.25 0C12.0408 0 12.7546 0.229167 13.3913 0.6875C14.0279 1.14583 14.4808 1.75 14.75 2.5H20C20.6875 2.5 21.2763 2.745 21.7663 3.235C22.2563 3.725 22.5008 4.31333 22.5 5V12.6562C21.625 12.4479 20.7554 12.4321 19.8913 12.6087C19.0271 12.7854 18.23 13.1142 17.5 13.595V12.5H5V15H15.9062L13.4062 17.5H5V20H11.0938C10.6146 20.7292 10.2863 21.5263 10.1087 22.3913C9.93125 23.2563 9.9475 24.1258 10.1575 25" fill="white"/>
</svg>
