<svg width="25" height="25" viewBox="0 0 25 25" fill="none" xmlns="http://www.w3.org/2000/svg">
<path d="M14.375 25C12.125 25 10.2083 24.2083 8.625 22.625C7.04167 21.0417 6.25 19.125 6.25 16.875V16.1562C4.45833 15.8646 2.96875 15.0258 1.78125 13.64C0.59375 12.2542 0 10.6242 0 8.75V1.25H3.75V0H6.25V5H3.75V3.75H2.5V8.75C2.5 10.125 2.98958 11.3021 3.96875 12.2812C4.94792 13.2604 6.125 13.75 7.5 13.75C8.875 13.75 10.0521 13.2604 11.0312 12.2812C12.0104 11.3021 12.5 10.125 12.5 8.75V3.75H11.25V5H8.75V0H11.25V1.25H15V8.75C15 10.625 14.4062 12.2554 13.2188 13.6413C12.0312 15.0271 10.5417 15.8654 8.75 16.1562V16.875C8.75 18.4375 9.29708 19.7658 10.3912 20.86C11.4854 21.9542 12.8133 22.5008 14.375 22.5C15.9367 22.4992 17.265 21.9525 18.36 20.86C19.455 19.7675 20.0017 18.4392 20 16.875V14.7812C19.2708 14.5312 18.6721 14.0833 18.2038 13.4375C17.7354 12.7917 17.5008 12.0625 17.5 11.25C17.5 10.2083 17.8646 9.32292 18.5938 8.59375C19.3229 7.86458 20.2083 7.5 21.25 7.5C22.2917 7.5 23.1771 7.86458 23.9062 8.59375C24.6354 9.32292 25 10.2083 25 11.25C25 12.0625 24.7658 12.7917 24.2975 13.4375C23.8292 14.0833 23.23 14.5312 22.5 14.7812V16.875C22.5 19.125 21.7083 21.0417 20.125 22.625C18.5417 24.2083 16.625 25 14.375 25Z" fill="white"/>
</svg>
